<svg xmlns="http://www.w3.org/2000/svg" xmlns:xlink="http://www.w3.org/1999/xlink" id="Livello_1" data-name="Livello 1" viewBox="0 0 224.22 85.04"><defs><style>      .cls-1 {        fill: #00447e;      }      .cls-2 {        fill: url(#Sfumatura_senza_nome_3);      }    </style><linearGradient id="Sfumatura_senza_nome_3" data-name="Sfumatura senza nome 3" x1="-12.64" y1="-512.99" x2="32.65" y2="-467.71" gradientTransform="translate(0 -448.68) scale(1 -1)" gradientUnits="userSpaceOnUse"><stop offset="0" stop-color="#22a1c0"></stop><stop offset="1" stop-color="#fab501"></stop></linearGradient></defs><g><path class="cls-1" d="M85.65,21.3l-14.35,42.24h8.22l3.7-11.17h18.4l3.81,11.17h8.5l-14.81-42.24h-13.48.01ZM85.55,45.37l5.7-17.18h2.13l5.86,17.18s-13.69,0-13.69,0Z"></path><rect class="cls-1" x="120.01" y="21.3" width="8.22" height="42.24"></rect><path class="cls-1" d="M170.84,27.29c-1.91-1.95-4.28-3.48-7.12-4.6-2.83-1.12-6.16-1.68-9.98-1.68h-15.27v42.76h15.27c3.82,0,7.15-.6,9.98-1.79,2.83-1.2,5.21-2.79,7.12-4.77,1.91-1.99,3.34-4.22,4.28-6.71.94-2.49,1.42-5,1.42-7.55v-1.27c0-2.66-.47-5.24-1.42-7.72-.95-2.49-2.37-4.71-4.28-6.65v-.02ZM167.25,47.89c-.64,1.68-1.56,3.13-2.78,4.37-1.21,1.23-2.68,2.19-4.4,2.86-1.72.68-3.65,1.01-5.81,1.01h-7.58v-27.48h7.58c2.16,0,4.1.32,5.81.95,1.72.64,3.18,1.55,4.4,2.75,1.21,1.2,2.14,2.63,2.78,4.31s.95,3.56.95,5.64-.32,3.91-.95,5.58h0Z"></path><path class="cls-1" d="M212.49,63.54h8.5l-14.81-42.24h-13.48l-14.35,42.24h8.22l3.7-11.17h18.4l3.81,11.17h.01ZM192.6,45.37l5.7-17.18h2.13l5.86,17.18h-13.69Z"></path></g><g><path class="cls-1" d="M215.81,75.85l-3.41-3.41c-.52-.52-1.22-.85-1.96-.81H73.86c-1.53,0-2.77,1.24-2.77,2.77v6.81c0,1.53,1.24,2.77,2.77,2.77h136.59c.74,0,1.44-.29,1.96-.81l3.41-3.41c1.08-1.08,1.08-2.84,0-3.92h-.01ZM111.38,83.06h-37.52c-1.02,0-1.85-.83-1.85-1.85v-6.81c0-1.02.83-1.85,1.85-1.85h37.52c.49,0,.96.19,1.31.54l3.41,3.41c.35.35.54.81.54,1.31s-.19.96-.54,1.31l-3.41,3.41c-.35.35-.81.54-1.31.54h0ZM215.16,79.12l-3.41,3.41c-.35.35-.81.54-1.31.54h-96.99l3.29-3.29c.52-.52.81-1.22.81-1.96s-.29-1.44-.81-1.96l-3.29-3.29h96.99c.49,0,.96.19,1.31.54l3.41,3.41c.72.72.72,1.89,0,2.61h0Z"></path><g><path class="cls-1" d="M126.19,78.27c0,.22-.04.41-.13.58s-.21.29-.37.38-.36.14-.59.14-.43-.05-.59-.14c-.16-.09-.28-.22-.37-.38-.08-.17-.13-.36-.13-.58v-2.79h-.89v2.74c0,.4.08.75.23,1.05s.37.53.67.69c.29.16.65.24,1.08.24s.79-.08,1.09-.24c.29-.16.52-.39.66-.69.15-.3.22-.65.22-1.05v-2.74h-.89v2.79h0Z"></path><polygon class="cls-1" points="132.24 79.33 132.15 79.33 130.22 75.48 128.76 75.48 128.76 80.07 129.59 80.07 129.59 76.22 129.67 76.22 131.6 80.07 133.08 80.07 133.08 75.48 132.24 75.48 132.24 79.33"></polygon><rect class="cls-1" x="134.86" y="75.48" width=".89" height="4.6"></rect><polygon class="cls-1" points="139.41 79.33 139.19 79.33 138.01 75.48 137.09 75.48 138.55 80.07 140.03 80.07 141.39 75.48 140.49 75.48 139.41 79.33"></polygon><polygon class="cls-1" points="143.62 78.12 145.41 78.12 145.41 77.36 143.62 77.36 143.62 76.23 145.52 76.23 145.52 75.48 143.62 75.48 143.49 75.48 142.74 75.48 142.74 80.07 143.49 80.07 143.62 80.07 145.57 80.07 145.57 79.32 143.62 79.32 143.62 78.12"></polygon><path class="cls-1" d="M149.79,78.38c.27-.11.48-.27.63-.49.15-.22.22-.5.22-.83v-.1c0-.34-.07-.62-.22-.84-.15-.22-.36-.39-.63-.5s-.59-.17-.96-.17h-1.71v4.63h.89v-1.54h.82l1.08,1.54h1.05l-1.23-1.69s.03,0,.04-.01h.02ZM148.02,76.21h.91c.16,0,.31.03.42.1.12.07.21.16.28.28.06.12.1.26.1.42s-.03.3-.1.42c-.07.12-.16.21-.28.28s-.26.1-.42.1h-.91s0-1.6,0-1.6Z"></path><path class="cls-1" d="M154.89,77.58c-.25-.11-.53-.18-.87-.21l-.4-.04c-.23-.02-.39-.08-.5-.19s-.16-.23-.16-.38c0-.12.03-.23.09-.32s.15-.18.26-.24.26-.09.44-.09.34.03.46.1c.12.07.21.15.27.26s.09.22.09.34h.88c0-.3-.07-.56-.2-.78-.14-.22-.33-.39-.59-.51-.25-.12-.56-.18-.9-.18s-.63.06-.88.17c-.25.12-.44.28-.58.49s-.21.46-.21.76c0,.39.13.7.39.94.26.24.61.38,1.05.41l.4.04c.29.03.51.09.65.19s.21.23.21.39c0,.13-.04.25-.11.35s-.18.19-.33.25c-.14.06-.33.09-.55.09-.24,0-.43-.04-.58-.11-.15-.07-.26-.16-.32-.28-.07-.12-.1-.23-.1-.36h-.87c0,.29.07.55.22.78s.36.41.64.54.62.2,1.03.2c.38,0,.71-.06.99-.18s.49-.29.65-.51.23-.48.23-.76-.07-.51-.21-.7c-.14-.19-.33-.35-.58-.46h0Z"></path><rect class="cls-1" x="157.13" y="75.48" width=".89" height="4.6"></rect><polygon class="cls-1" points="159.38 76.27 160.71 76.27 160.71 80.07 161.6 80.07 161.6 76.27 162.93 76.27 162.93 75.48 159.38 75.48 159.38 76.27"></polygon><path class="cls-1" d="M164.99,75.48l-1.56,4.6h.89l.4-1.21h2l.41,1.21h.92l-1.61-4.6h-1.47.02ZM164.98,78.1l.62-1.87h.23l.64,1.87h-1.49,0Z"></path><polygon class="cls-1" points="166.15 75.13 165.44 74.03 164.47 74.03 165.31 75.13 166.15 75.13"></polygon><path class="cls-1" d="M174.14,77.72c.1-.06.19-.14.26-.23.14-.17.21-.4.21-.68v-.09c0-.41-.14-.72-.41-.94s-.67-.33-1.19-.33h-1.65v4.66h1.84c.35,0,.64-.05.88-.15s.42-.25.54-.44.18-.42.18-.7v-.09c0-.29-.07-.52-.21-.69-.11-.14-.27-.24-.45-.32h0ZM173.1,76.17c.21,0,.37.06.47.17s.15.27.15.46-.05.33-.15.45c-.1.11-.26.17-.47.17h-.86v-1.25s.86,0,.86,0ZM173.74,79.22c-.11.11-.27.17-.47.17h-1.03v-1.28h1.03c.21,0,.37.06.48.17s.16.27.16.47-.06.36-.17.48h0Z"></path><rect class="cls-1" x="176.34" y="75.48" width=".89" height="4.6"></rect><path class="cls-1" d="M181.95,79.11c-.24.17-.53.25-.87.25-.24,0-.44-.04-.62-.12s-.33-.19-.45-.34c-.12-.14-.21-.31-.27-.51-.06-.19-.09-.4-.09-.63s.03-.44.09-.64c.06-.19.15-.36.27-.5s.26-.25.44-.33.38-.12.6-.12.42.04.6.11c.18.08.32.18.44.33s.19.32.22.53h.91c-.04-.36-.15-.68-.33-.94s-.43-.48-.74-.63c-.31-.15-.67-.23-1.09-.23s-.74.07-1.04.2c-.29.14-.53.32-.72.54-.19.23-.33.48-.42.76s-.14.56-.14.84v.14c0,.26.04.53.13.8.09.27.23.53.41.77.19.24.43.43.72.57.3.14.65.22,1.07.22s.81-.08,1.13-.24.56-.38.74-.65c.18-.27.29-.57.33-.9h-.91c-.05.31-.19.54-.43.71h.02Z"></path><path class="cls-1" d="M188.64,76.1c-.2-.23-.46-.41-.76-.54-.3-.14-.66-.2-1.06-.2s-.75.07-1.06.2c-.3.14-.56.32-.76.54-.2.23-.36.48-.46.76s-.15.56-.15.84v.14c0,.26.05.52.14.8.1.27.24.53.44.77s.45.43.76.58c.3.14.66.22,1.08.22s.78-.07,1.08-.22c.3-.14.56-.34.76-.58.2-.24.35-.5.45-.77s.15-.54.15-.8v-.14c0-.28-.05-.56-.15-.84-.1-.28-.25-.53-.46-.76ZM188.24,78.38c-.07.19-.17.36-.3.51s-.29.27-.48.35-.4.13-.64.13-.44-.04-.63-.13-.35-.2-.48-.35c-.13-.15-.23-.32-.3-.51s-.1-.39-.1-.61.03-.44.1-.63c.07-.19.17-.36.3-.51s.29-.26.48-.34.4-.12.63-.12.45.04.63.12c.19.08.35.19.48.34.13.14.23.31.31.51.07.19.11.4.11.63,0,.21-.03.42-.1.61h0Z"></path><path class="cls-1" d="M193.67,79.11c-.24.17-.53.25-.87.25-.24,0-.44-.04-.62-.12s-.33-.19-.45-.34c-.12-.14-.21-.31-.27-.51-.06-.19-.09-.4-.09-.63s.03-.44.09-.64c.06-.19.15-.36.27-.5s.26-.25.44-.33.38-.12.6-.12.42.04.6.11c.18.08.32.18.44.33s.19.32.22.53h.91c-.04-.36-.15-.68-.33-.94s-.43-.48-.74-.63c-.31-.15-.67-.23-1.09-.23s-.74.07-1.04.2c-.29.14-.53.32-.72.54-.19.23-.33.48-.42.76s-.14.56-.14.84v.14c0,.26.04.53.13.8.09.27.23.53.41.77.19.24.43.43.72.57.3.14.65.22,1.07.22s.81-.08,1.13-.24.56-.38.74-.65c.18-.27.29-.57.33-.9h-.91c-.05.31-.19.54-.43.71h.02Z"></path><path class="cls-1" d="M199.33,79.11c-.24.17-.53.25-.87.25-.24,0-.44-.04-.62-.12s-.33-.19-.45-.34c-.12-.14-.21-.31-.27-.51-.06-.19-.09-.4-.09-.63s.03-.44.09-.64c.06-.19.15-.36.27-.5s.26-.25.44-.33.38-.12.6-.12.42.04.6.11c.18.08.32.18.44.33s.19.32.22.53h.91c-.04-.36-.15-.68-.33-.94s-.43-.48-.74-.63c-.31-.15-.67-.23-1.09-.23s-.74.07-1.04.2c-.29.14-.53.32-.72.54-.19.23-.33.48-.42.76s-.14.56-.14.84v.14c0,.26.04.53.13.8.09.27.23.53.41.77.19.24.43.43.72.57.3.14.65.22,1.07.22s.81-.08,1.13-.24.56-.38.74-.65c.18-.27.29-.57.33-.9h-.91c-.05.31-.19.54-.43.71h.02Z"></path><path class="cls-1" d="M205.27,80.07h.92l-1.61-4.6h-1.47l-1.56,4.6h.89l.4-1.21h2l.41,1.21h.02ZM203.1,78.1l.62-1.87h.23l.64,1.87h-1.49,0Z"></path></g><g><polygon class="cls-1" points="80.07 78.22 79.95 78.22 78.8 75.48 77.58 75.48 77.58 80.07 78.4 80.07 78.4 76.45 79.53 79.14 80.44 79.14 81.56 76.44 81.56 80.07 82.45 80.07 82.45 75.48 81.21 75.48 80.07 78.22"></polygon><path class="cls-1" d="M85.32,75.48l-1.56,4.6h.89l.4-1.21h2l.41,1.21h.92l-1.61-4.6h-1.47.02ZM85.31,78.1l.62-1.87h.23l.64,1.87h-1.49Z"></path><path class="cls-1" d="M92.32,77.58c-.25-.11-.53-.18-.87-.21l-.4-.04c-.23-.02-.39-.08-.5-.19s-.16-.23-.16-.38c0-.12.03-.23.09-.32s.15-.18.26-.24.26-.09.44-.09.34.03.46.1.21.15.27.26.09.22.09.34h.88c0-.3-.07-.56-.2-.78-.14-.22-.33-.39-.59-.51-.25-.12-.56-.18-.9-.18s-.63.06-.88.17c-.25.12-.44.28-.58.49s-.21.46-.21.76c0,.39.13.7.39.94.26.24.61.38,1.05.41l.4.04c.29.03.51.09.65.19s.21.23.21.39c0,.13-.04.25-.11.35s-.18.19-.33.25c-.14.06-.33.09-.55.09-.24,0-.43-.04-.58-.11s-.26-.16-.32-.28c-.07-.12-.1-.23-.1-.36h-.87c0,.29.07.55.22.78s.36.41.64.54.62.2,1.03.2c.38,0,.71-.06.99-.18s.49-.29.65-.51.23-.48.23-.76-.07-.51-.21-.7c-.14-.19-.33-.35-.58-.46h0Z"></path><polygon class="cls-1" points="94 76.27 95.33 76.27 95.33 80.07 96.23 80.07 96.23 76.27 97.55 76.27 97.55 75.48 94 75.48 94 76.27"></polygon><polygon class="cls-1" points="99.77 78.12 101.56 78.12 101.56 77.36 99.77 77.36 99.77 76.23 101.68 76.23 101.68 75.48 99.77 75.48 99.64 75.48 98.89 75.48 98.89 80.07 99.64 80.07 99.77 80.07 101.73 80.07 101.73 79.32 99.77 79.32 99.77 78.12"></polygon><path class="cls-1" d="M107.13,80.07l-1.23-1.69s.03,0,.04-.01c.27-.11.48-.27.63-.49.15-.22.22-.5.22-.83v-.1c0-.34-.07-.62-.22-.84-.15-.22-.36-.39-.63-.5s-.59-.17-.96-.17h-1.71v4.63h.89v-1.54h.82l1.08,1.54h1.07ZM104.17,76.21h.91c.16,0,.31.03.42.1.12.07.21.16.28.28.06.12.1.26.1.42s-.03.3-.1.42c-.07.12-.16.21-.28.28s-.26.1-.42.1h-.91s0-1.6,0-1.6Z"></path></g></g><path class="cls-2" d="M5.49,85.04c-1.49,0-2.83-.56-3.88-1.61-2.14-2.14-2.14-5.62,0-7.76,1.05-1.05,2.39-1.61,3.88-1.61h.31c2.23,0,4.35-1.02,5.74-2.77,1.42-1.78,1.94-4.13,1.39-6.34-.47-1.9.07-3.85,1.44-5.22l3.29-3.29c1.05-1.05,2.4-1.61,3.88-1.61.29,0,.57.02.85.06.37.06.74.08,1.11.08,2.27,0,4.44-1.06,5.85-2.9,1.63-2.14,1.96-5,.86-7.46-.64-1.43-.64-3.08,0-4.51,1.09-2.45.76-5.31-.86-7.44-1.4-1.84-3.57-2.9-5.85-2.9-.37,0-.73.03-1.1.08-.28.04-.57.06-.85.06-1.49,0-2.83-.56-3.88-1.61l-3.29-3.29c-1.05-1.05-1.61-2.39-1.61-3.88,0-.41.05-.82.13-1.22.49-2.21-.07-4.53-1.51-6.28-1.4-1.69-3.47-2.66-5.66-2.66h-.11c-1.48,0-2.82-.56-3.86-1.61C.7,8.32.15,6.98.15,5.49S.7,2.66,1.76,1.61C2.81.56,4.15,0,5.64,0s2.83.56,3.88,1.61c1.04,1.04,1.59,2.36,1.61,3.83.02,2.24,1.06,4.36,2.83,5.73,1.3,1.01,2.89,1.55,4.51,1.55.58,0,1.17-.07,1.74-.21.43-.1.88-.16,1.33-.16,1.49,0,2.83.56,3.88,1.61l3.3,3.3c1.05,1.05,1.61,2.39,1.61,3.88,0,.31-.03.61-.07.91-.43,2.64.61,5.31,2.72,6.96,1.32,1.03,2.92,1.56,4.53,1.56.97,0,1.95-.19,2.87-.59.67-.28,1.39-.43,2.15-.43,1.49,0,2.83.56,3.88,1.61l7.32,7.32c2.14,2.14,2.14,5.62,0,7.77l-7.32,7.32c-1.05,1.05-2.39,1.61-3.88,1.61-.76,0-1.48-.15-2.16-.43-.93-.39-1.9-.59-2.88-.59-1.62,0-3.23.54-4.54,1.57-2.11,1.66-3.15,4.33-2.71,6.98.29,1.76-.28,3.55-1.53,4.8l-3.29,3.29c-1.05,1.05-2.39,1.61-3.88,1.61-.48,0-.94-.06-1.39-.17-.61-.16-1.22-.23-1.83-.23-1.63,0-3.23.54-4.54,1.57-1.8,1.41-2.84,3.59-2.81,5.87v.11c0,1.49-.56,2.83-1.61,3.88s-2.39,1.61-3.88,1.61h0Z"></path></svg>